<svg width="24" height="29" viewBox="0 0 24 29" fill="none" xmlns="http://www.w3.org/2000/svg">
<mask id="path-1-inside-1_223_771" fill="white">
<path fill-rule="evenodd" clip-rule="evenodd" d="M12.1236 0V0.00869028C13.4573 0.102818 14.5823 0.952888 15.0728 2.13305C17.0053 2.96533 18.4748 4.52884 19.0389 6.42551H19.0433C19.072 6.51251 19.0973 6.61288 19.1198 6.72517C19.2316 7.18594 19.2905 7.66451 19.2905 8.15546C19.2905 8.26421 19.2876 8.37236 19.2819 8.47984C19.2967 8.8117 19.3087 9.16457 19.3212 9.52997C19.3911 11.5743 19.4745 14.0106 20.1207 15.3504C20.455 16.0434 21.1818 16.5364 21.9087 17.0295C22.6229 17.5141 23.3371 17.9986 23.6791 18.6728C24.6704 20.6274 23.2448 23.1762 21.0535 23.1391L12 22.9857L2.94646 23.1391C0.755163 23.1762 -0.670373 20.6274 0.320947 18.6728C0.662884 17.9986 1.37712 17.5141 2.09131 17.0295C2.81819 16.5364 3.54503 16.0434 3.87928 15.3504C4.52553 14.0106 4.60886 11.5743 4.67878 9.52998C4.69128 9.16457 4.70335 8.81169 4.71813 8.47984C4.71241 8.37236 4.70952 8.26421 4.70952 8.15546C4.70952 7.66451 4.76843 7.18595 4.88024 6.72518C4.90267 6.61288 4.92796 6.51251 4.95665 6.42551H4.96112C5.52525 4.52884 6.99473 2.96533 8.92723 2.13305C9.41769 0.952888 10.5427 0.102818 11.8764 0.00869027V0C11.9178 0 11.959 0.000725825 12 0.00216543C12.041 0.000725825 12.0822 0 12.1236 0ZM7.91407 24.7135C7.91407 24.4374 7.69021 24.2135 7.41407 24.2135C7.13792 24.2135 6.91407 24.4374 6.91407 24.7135C6.91407 27.0102 9.25378 28.6734 11.8625 28.6734C14.4712 28.6734 16.8109 27.0102 16.8109 24.7135C16.8109 24.4374 16.5871 24.2135 16.3109 24.2135C16.0348 24.2135 15.8109 24.4374 15.8109 24.7135C15.8109 26.2385 14.1674 27.6734 11.8625 27.6734C9.55762 27.6734 7.91407 26.2385 7.91407 24.7135Z"/>
</mask>
<path d="M12.1236 0.00869028H10.1236V1.87251L11.9828 2.00373L12.1236 0.00869028ZM12.1236 0H14.1236V-2H12.1236V0ZM15.0728 2.13305L13.2259 2.90057L13.537 3.64924L14.2817 3.96993L15.0728 2.13305ZM19.0389 6.42551L17.1219 6.99569L17.5472 8.42551H19.0389V6.42551ZM19.0433 6.42551L20.9427 5.79919L20.4898 4.42551H19.0433V6.42551ZM19.1198 6.72517L17.1585 7.11689L17.1665 7.15702L17.1762 7.1968L19.1198 6.72517ZM19.2819 8.47984L17.2847 8.37362L17.2795 8.4712L17.2839 8.56882L19.2819 8.47984ZM19.3212 9.52997L17.3224 9.59833V9.59834L19.3212 9.52997ZM20.1207 15.3504L21.9221 14.4815V14.4815L20.1207 15.3504ZM21.9087 17.0295L20.7859 18.6846L21.9087 17.0295ZM23.6791 18.6728L21.8953 19.5774V19.5774L23.6791 18.6728ZM21.0535 23.1391L21.0874 21.1394L21.0535 23.1391ZM12 22.9857L12.0339 20.9859L12 20.9854L11.9661 20.9859L12 22.9857ZM2.94646 23.1391L2.91257 21.1394H2.91257L2.94646 23.1391ZM0.320947 18.6728L-1.46276 17.7681L-1.46276 17.7681L0.320947 18.6728ZM2.09131 17.0295L3.21411 18.6846H3.21411L2.09131 17.0295ZM3.87928 15.3504L5.68068 16.2193L3.87928 15.3504ZM4.67878 9.52998L6.67761 9.59834V9.59834L4.67878 9.52998ZM4.71813 8.47984L6.71615 8.56882L6.72049 8.4712L6.7153 8.37362L4.71813 8.47984ZM4.88024 6.72518L6.82383 7.19681L6.83349 7.15704L6.8415 7.1169L4.88024 6.72518ZM4.95665 6.42551V4.42551H3.51022L3.05726 5.79918L4.95665 6.42551ZM4.96112 6.42551V8.42551H6.45284L6.87812 6.9957L4.96112 6.42551ZM8.92723 2.13305L9.71833 3.96993L10.463 3.64924L10.7741 2.90057L8.92723 2.13305ZM11.8764 0.00869027L12.0172 2.00373L13.8764 1.87251V0.00869027H11.8764ZM11.8764 0V-2H9.87643V0H11.8764ZM12 0.00216543L11.9298 2.00093L12 2.0034L12.0702 2.00093L12 0.00216543ZM14.1236 0.00869028V0H10.1236V0.00869028H14.1236ZM16.9196 1.36552C16.147 -0.493577 14.3748 -1.8374 12.2644 -1.98635L11.9828 2.00373C12.5398 2.04304 13.0176 2.39935 13.2259 2.90057L16.9196 1.36552ZM20.9559 5.85533C20.2051 3.33097 18.2812 1.33724 15.8639 0.296158L14.2817 3.96993C15.7293 4.59341 16.7444 5.72672 17.1219 6.99569L20.9559 5.85533ZM19.0433 4.42551H19.0389V8.42551H19.0433V4.42551ZM21.081 6.33346C21.0477 6.16662 21.0036 5.98387 20.9427 5.79919L17.1439 7.05183C17.1416 7.04486 17.1425 7.04653 17.1456 7.0587C17.1486 7.07065 17.1531 7.0897 17.1585 7.11689L21.081 6.33346ZM21.2905 8.15546C21.2905 7.50375 21.2122 6.8669 21.0634 6.25355L17.1762 7.1968C17.2509 7.50498 17.2905 7.82526 17.2905 8.15546H21.2905ZM21.2791 8.58606C21.2866 8.44324 21.2905 8.29967 21.2905 8.15546H17.2905C17.2905 8.22875 17.2885 8.30148 17.2847 8.37362L21.2791 8.58606ZM21.3201 9.46161C21.3076 9.09847 21.2952 8.73492 21.2799 8.39087L17.2839 8.56882C17.2981 8.88848 17.3098 9.23068 17.3224 9.59833L21.3201 9.46161ZM21.9221 14.4815C21.7562 14.1375 21.5994 13.4823 21.4935 12.4918C21.3922 11.5444 21.3555 10.4984 21.3201 9.46161L17.3224 9.59834C17.3569 10.6059 17.3968 11.8002 17.5162 12.917C17.631 13.9906 17.839 15.2235 18.3193 16.2193L21.9221 14.4815ZM23.0315 15.3745C22.6478 15.1142 22.3851 14.933 22.1748 14.7514C21.9717 14.5759 21.9255 14.4886 21.9221 14.4815L18.3193 16.2193C18.9338 17.4932 20.1914 18.2813 20.7859 18.6846L23.0315 15.3745ZM25.4628 17.7681C24.8407 16.5416 23.6196 15.7734 23.0315 15.3745L20.7859 18.6846C21.6262 19.2547 21.8336 19.4556 21.8953 19.5774L25.4628 17.7681ZM21.0196 25.1388C22.9609 25.1717 24.4858 24.0487 25.2917 22.653C26.0922 21.2669 26.302 19.4228 25.4628 17.7681L21.8953 19.5774C22.0475 19.8774 22.0401 20.285 21.8278 20.6527C21.621 21.0108 21.3375 21.1436 21.0874 21.1394L21.0196 25.1388ZM11.9661 24.9854L21.0196 25.1388L21.0874 21.1394L12.0339 20.9859L11.9661 24.9854ZM2.98036 25.1388L12.0339 24.9854L11.9661 20.9859L2.91257 21.1394L2.98036 25.1388ZM-1.46276 17.7681C-2.30195 19.4228 -2.09217 21.2669 -1.29174 22.653C-0.485748 24.0487 1.03912 25.1717 2.98036 25.1388L2.91257 21.1394C2.6625 21.1436 2.37896 21.0108 2.17218 20.6527C1.95985 20.285 1.95253 19.8774 2.10465 19.5774L-1.46276 17.7681ZM0.968512 15.3745C0.380404 15.7734 -0.840674 16.5416 -1.46276 17.7681L2.10465 19.5774C2.16644 19.4556 2.37383 19.2547 3.21411 18.6846L0.968512 15.3745ZM2.07789 14.4815C2.07447 14.4886 2.02833 14.5759 1.82517 14.7514C1.61486 14.933 1.35217 15.1142 0.968511 15.3745L3.21411 18.6846C3.80861 18.2813 5.06618 17.4932 5.68068 16.2193L2.07789 14.4815ZM2.67995 9.46161C2.64449 10.4984 2.60778 11.5444 2.50649 12.4918C2.40057 13.4823 2.2438 14.1375 2.07789 14.4815L5.68068 16.2193C6.16101 15.2235 6.36902 13.9906 6.48382 12.917C6.60323 11.8002 6.64315 10.6059 6.67761 9.59834L2.67995 9.46161ZM2.72011 8.39086C2.70478 8.73491 2.69237 9.09848 2.67995 9.46161L6.67761 9.59834C6.69019 9.23067 6.70191 8.88847 6.71615 8.56882L2.72011 8.39086ZM2.70952 8.15546C2.70952 8.29966 2.71335 8.44323 2.72095 8.58606L6.7153 8.37362C6.71147 8.30149 6.70952 8.22876 6.70952 8.15546H2.70952ZM2.93664 6.25355C2.78781 6.86691 2.70952 7.50375 2.70952 8.15546H6.70952C6.70952 7.82526 6.74905 7.50499 6.82383 7.19681L2.93664 6.25355ZM3.05726 5.79918C2.99635 5.98389 2.95229 6.16666 2.91897 6.33346L6.8415 7.1169C6.84694 7.0897 6.85139 7.07064 6.85443 7.05868C6.85752 7.04651 6.85836 7.04485 6.85605 7.05184L3.05726 5.79918ZM4.96112 4.42551H4.95665V8.42551H4.96112V4.42551ZM8.13613 0.296158C5.7188 1.33724 3.79495 3.33097 3.04412 5.85533L6.87812 6.9957C7.25556 5.72672 8.27066 4.59341 9.71833 3.96993L8.13613 0.296158ZM11.7356 -1.98635C9.6252 -1.8374 7.85298 -0.493577 7.08037 1.36552L10.7741 2.90057C10.9824 2.39935 11.4602 2.04304 12.0172 2.00373L11.7356 -1.98635ZM9.87643 0V0.00869027H13.8764V0H9.87643ZM12.0702 -1.9966C12.0058 -1.99886 11.9412 -2 11.8764 -2V2C11.8944 2 11.9122 2.00032 11.9298 2.00093L12.0702 -1.9966ZM12.1236 -2C12.0588 -2 11.9942 -1.99886 11.9298 -1.9966L12.0702 2.00093C12.0878 2.00032 12.1056 2 12.1236 2V-2ZM7.41407 26.2135C6.58564 26.2135 5.91407 25.5419 5.91407 24.7135H9.91407C9.91407 23.3328 8.79478 22.2135 7.41407 22.2135V26.2135ZM8.91407 24.7135C8.91407 25.5419 8.24249 26.2135 7.41407 26.2135V22.2135C6.03335 22.2135 4.91407 23.3328 4.91407 24.7135H8.91407ZM11.8625 26.6734C10.9648 26.6734 10.1657 26.3832 9.63173 25.9712C9.11174 25.57 8.91407 25.1259 8.91407 24.7135H4.91407C4.91407 26.5977 5.88625 28.1336 7.18829 29.1382C8.47634 30.132 10.1514 30.6734 11.8625 30.6734V26.6734ZM14.8109 24.7135C14.8109 25.1259 14.6133 25.57 14.0933 25.9712C13.5593 26.3832 12.7602 26.6734 11.8625 26.6734V30.6734C13.5736 30.6734 15.2487 30.132 16.5367 29.1382C17.8387 28.1336 18.8109 26.5977 18.8109 24.7135H14.8109ZM16.3109 26.2135C15.4825 26.2135 14.8109 25.5419 14.8109 24.7135H18.8109C18.8109 23.3328 17.6916 22.2135 16.3109 22.2135V26.2135ZM17.8109 24.7135C17.8109 25.5419 17.1394 26.2135 16.3109 26.2135V22.2135C14.9302 22.2135 13.8109 23.3328 13.8109 24.7135H17.8109ZM11.8625 29.6734C14.7962 29.6734 17.8109 27.7652 17.8109 24.7135H13.8109C13.8109 24.7313 13.7951 24.9336 13.4652 25.1928C13.1475 25.4425 12.6049 25.6734 11.8625 25.6734V29.6734ZM5.91407 24.7135C5.91407 27.7652 8.92875 29.6734 11.8625 29.6734V25.6734C11.1201 25.6734 10.5775 25.4425 10.2598 25.1928C9.92989 24.9336 9.91407 24.7313 9.91407 24.7135H5.91407Z" fill="#0039A6" mask="url(#path-1-inside-1_223_771)"/>
</svg>
